<svg width="14" height="10" viewBox="0 0 14 10" fill="none" xmlns="http://www.w3.org/2000/svg">
<path d="M3.204 9.144C2.644 9.144 2.16 9.008 1.752 8.736C1.344 8.464 1.028 8.08 0.804 7.584C0.588 7.088 0.48 6.5 0.48 5.82C0.48 5.14 0.588 4.552 0.804 4.056C1.028 3.56 1.344 3.176 1.752 2.904C2.16 2.632 2.644 2.496 3.204 2.496C3.652 2.496 4.044 2.604 4.38 2.82C4.716 3.028 4.96 3.264 5.112 3.528V0.48H6.12V9H5.208L5.172 8.04C4.996 8.384 4.736 8.656 4.392 8.856C4.048 9.048 3.652 9.144 3.204 9.144ZM3.264 8.184C3.648 8.184 3.976 8.088 4.248 7.896C4.528 7.704 4.74 7.432 4.884 7.08C5.036 6.72 5.112 6.3 5.112 5.82C5.112 5.324 5.036 4.9 4.884 4.548C4.74 4.196 4.528 3.928 4.248 3.744C3.968 3.552 3.632 3.456 3.24 3.456C2.72 3.456 2.304 3.668 1.992 4.092C1.688 4.508 1.536 5.084 1.536 5.82C1.536 6.548 1.688 7.124 1.992 7.548C2.304 7.972 2.728 8.184 3.264 8.184ZM8.63531 7.776L11.9953 1.656L12.9553 1.704L9.59531 7.824L8.63531 7.776ZM10.7953 9.192C10.1793 9.192 9.64331 9.012 9.18731 8.652C8.73931 8.292 8.39531 7.78 8.15531 7.116C7.91531 6.452 7.79531 5.664 7.79531 4.752C7.79531 3.832 7.91531 3.04 8.15531 2.376C8.39531 1.712 8.73931 1.2 9.18731 0.84C9.64331 0.472 10.1793 0.288 10.7953 0.288C11.4193 0.288 11.9553 0.472 12.4033 0.84C12.8513 1.2 13.1953 1.712 13.4353 2.376C13.6753 3.04 13.7953 3.832 13.7953 4.752C13.7953 5.664 13.6753 6.452 13.4353 7.116C13.1953 7.78 12.8513 8.292 12.4033 8.652C11.9553 9.012 11.4193 9.192 10.7953 9.192ZM10.7953 8.184C11.1953 8.184 11.5353 8.044 11.8153 7.764C12.1033 7.484 12.3233 7.088 12.4753 6.576C12.6353 6.056 12.7153 5.448 12.7153 4.752C12.7153 4.04 12.6353 3.428 12.4753 2.916C12.3233 2.396 12.1033 1.996 11.8153 1.716C11.5353 1.436 11.1953 1.296 10.7953 1.296C10.4033 1.296 10.0633 1.436 9.77531 1.716C9.48731 1.996 9.26331 2.396 9.10331 2.916C8.95131 3.428 8.87531 4.04 8.87531 4.752C8.87531 5.448 8.95131 6.056 9.10331 6.576C9.26331 7.088 9.48731 7.484 9.77531 7.764C10.0633 8.044 10.4033 8.184 10.7953 8.184Z" fill="black"/>
</svg>
